HIERARCHY
ROOT Hips
{
  OFFSET 196.326 95.9168 97.7182
  CHANNELS 6 Xposition Yposition Zposition Zrotation Xrotation Yrotation
  JOINT LeftUpLeg
  {
    OFFSET 8.64259 1.95398 -2.38835
    CHANNELS 3 Zrotation Xrotation Yrotation
    JOINT LeftLeg
    {
      OFFSET 43.7702 0 0
      CHANNELS 3 Zrotation Xrotation Yrotation
      JOINT LeftFoot
      {
        OFFSET 40.6238 0 0
        CHANNELS 3 Zrotation Xrotation Yrotation
        JOINT LeftToeBase
        {
          OFFSET 12.7242 0 0
          CHANNELS 3 Zrotation Xrotation Yrotation
          End Site
          {
            OFFSET 0 0 0
          }
        }
      }
    }
  }
  JOINT RightUpLeg
  {
    OFFSET -8.2249 1.95398 -2.59336
    CHANNELS 3 Zrotation Xrotation Yrotation
    JOINT RightLeg
    {
      OFFSET 43.5653 0 0
      CHANNELS 3 Zrotation Xrotation Yrotation
      JOINT RightFoot
      {
        OFFSET 40.6238 0 0
        CHANNELS 3 Zrotation Xrotation Yrotation
        JOINT RightToeBase
        {
          OFFSET 12.7242 0 0
          CHANNELS 3 Zrotation Xrotation Yrotation
          End Site
          {
            OFFSET 0 0 0
          }
        }
      }
    }
  }
  JOINT Spine
  {
    OFFSET 0.165834 0.87714 6.61349
    CHANNELS 3 Zrotation Xrotation Yrotation
    JOINT Spine1
    {
      OFFSET 7.38963 1.71661e-005 0
      CHANNELS 3 Zrotation Xrotation Yrotation
      JOINT Spine2
      {
        OFFSET 11.9445 1.14441e-005 0
        CHANNELS 3 Zrotation Xrotation Yrotation
        JOINT Spine3
        {
          OFFSET 14.7254 4.19617e-005 0
          CHANNELS 3 Zrotation Xrotation Yrotation
          JOINT Spine4
          {
            OFFSET 10.9679 0 0
            CHANNELS 3 Zrotation Xrotation Yrotation
            JOINT RightShoulder
            {
              OFFSET 2.46616 -1.6653 3.69651
              CHANNELS 3 Zrotation Xrotation Yrotation
              JOINT RightArm
              {
                OFFSET 13.0012 0 0
                CHANNELS 3 Zrotation Xrotation Yrotation
                JOINT RightForeArm
                {
                  OFFSET 28.7848 1.52588e-005 0
                  CHANNELS 3 Zrotation Xrotation Yrotation
                  JOINT RightHand
                  {
                    OFFSET 26.5688 1.52588e-005 0
                    CHANNELS 3 Zrotation Xrotation Yrotation
                    End Site
                    {
                      OFFSET 0 0 0
                    }
                  }
                }
              }
            }
            JOINT LeftShoulder
            {
              OFFSET 2.38034 -1.29275 -3.75231
              CHANNELS 3 Zrotation Xrotation Yrotation
              JOINT LeftArm
              {
                OFFSET 16.3182 6.10351e-005 0
                CHANNELS 3 Zrotation Xrotation Yrotation
                JOINT LeftForeArm
                {
                  OFFSET 27.0901 0 0
                  CHANNELS 3 Zrotation Xrotation Yrotation
                  JOINT LeftHand
                  {
                    OFFSET 24.5451 1.52588e-005 0
                    CHANNELS 3 Zrotation Xrotation Yrotation
                    End Site
                    {
                      OFFSET 0 0 0
                    }
                  }
                }
              }
            }
            JOINT Neck
            {
              OFFSET 5.0226 -0.0266342 0
              CHANNELS 3 Zrotation Xrotation Yrotation
              JOINT Head
              {
                OFFSET 6.69363 2.86102e-005 0
                CHANNELS 3 Zrotation Xrotation Yrotation
                End Site
                {
                  OFFSET 0 0 0
                }
              }
            }
          }
        }
      }
    }
  }
}
MOTION
Frames:	15
Frame Time:	0.0416667
-284.343 88.3455 -271.918 94.9254 -42.1459 101.033 -171.025 21.184 110.509 -70.9004 -56.3069 5.93907 8.19447 -25.7002 -70.7673 -13.9122 13.4306 -112.129 -174.023 19.8536 112.928 -54.7875 -28.9312 -19.3959 -6.96678 19.0847 35.3002 120.059 -6.90905 -15.1542 -0.384442 7.09975 -90.9142 12.6627 -1.19996 -1.6857 0.991261 -1.27296 -1.63128 -21.5367 -0.637955 -1.96829 -1.52408 -0.637966 -1.9683 88.9859 -55.957 -100.968 4.04144 -7.48787 -31.0756 17.2985 6.97369 -74.9462 -20.7966 9.60714 -56.1623 -96.2244 -38.8708 65.5953 -48.5419 17.9632 30.0639 14.3577 -6.79943 -93.0082 25.5828 1.78739 3.16424 1.18651 2.20511 -1.94563 6.01745 3.20212 6.49943 
-282.089 88.7509 -269.087 91.9673 -31.5134 97.8457 176.339 23.6018 101.944 -60.0538 -45.9884 14.3495 20.0948 -20.6385 -11.4805 110.96 -16.2099 -115.806 -176.783 18.6364 110.322 -51.835 -28.9257 -12.4442 2.26669 17.3061 27.0576 115.463 -15.2631 -25.7925 -1.26609 8.53816 -91.2232 9.76358 -3.07772 -2.17591 -1.90514 -3.17048 -2.0383 -24.445 -2.28172 -3.00011 -4.43233 -2.28173 -3.00011 83.892 -47.4132 -110.953 16.8029 4.19275 -4.71837 24.9413 -3.42482 -109.716 -18.453 9.96385 -65.2555 -98.6844 -41.9611 62.8697 -39.0836 11.1631 20.8357 12.3471 -2.03485 -84.535 29.1829 2.48147 4.7279 17.1696 1.84064 2.45665 3.46053 1.48061 4.05115 
-277.373 88.1556 -263.505 89.9437 -42.2255 93.9103 -179.21 39.9544 94.9515 -68.5155 13.4407 1.80657 52.0049 -3.08619 6.06512 54.3728 22.1356 -27.4558 -176.307 14.0719 105.294 -47.8325 -7.83084 -9.88408 5.14884 11.6652 18.6207 116.225 8.99172 2.87094 0.315824 8.01398 -90.6294 10.8539 0.337431 -1.28974 -0.81892 0.280378 -1.30334 -23.3416 0.709374 -1.12883 -3.32892 0.709348 -1.12885 86.7494 -44.678 -107.407 27.1931 1.33414 9.90685 45.7348 -16.7975 -120.805 -19.0232 13.4212 -75.2685 -96.8295 -41.3608 65.5867 -43.4051 12.5083 30.9566 8.24751 -3.70366 -84.4741 29.7998 2.20236 3.55717 15.5993 -0.678809 2.4398 2.6185 -1.12307 2.54112 
-267.812 90.5812 -253.477 80.9376 -51.6359 82.3545 -172.199 43.1784 91.3994 -41.3963 17.5823 -2.56918 50.0007 -4.36424 9.71657 47.398 20.2112 -1.86922 -176.828 4.66359 94.6551 -34.5116 4.3443 -6.99004 13.7533 6.24111 10.3223 77.9767 22.5258 51.2845 1.59016 7.32111 -89.8031 12.2414 3.25333 0.0186029 0.574688 3.25102 -0.12477 -21.9924 3.09721 0.996483 -1.9798 3.09722 0.99648 87.624 -41.9401 -106.867 31.6454 -7.03319 8.14551 -89.0626 -0.914525 -92.9201 31.9498 -24.2856 -52.5013 -94.3259 -39.3852 68.9313 -47.9045 11.7315 38.1458 9.94447 -3.75438 -86.375 31.0501 2.34514 3.732 16.2 -2.60951 2.58835 1.52506 -3.09718 2.21498 
-255.95 92.6624 -241.92 78.9248 -48.0243 80.2164 -175.496 39.6849 88.5593 -20.1254 23.4035 -2.25152 47.8058 -6.01385 9.90342 52.9598 25.6884 -2.38077 178.574 -3.09949 91.5415 -33.6486 -8.28781 -3.83645 35.796 5.29988 5.76425 41.6498 1.52746 14.4972 1.44797 6.95528 -89.576 12.961 3.07814 0.473955 1.29364 3.09602 0.337882 -21.266 2.79331 1.37782 -1.25332 2.79328 1.37781 88.0343 -42.5349 -105.989 34.9757 -18.5452 11.5405 -52.01 10.1975 -98.2348 -7.42064 -0.511989 -2.80695 -93.1074 -37.2979 70.247 -50.4032 10.1476 42.4544 8.91032 -4.64152 -88.7854 30.7728 2.31563 3.70312 16.6365 -3.62983 1.74698 0.402393 -3.8265 3.04742 
-245.755 92.62 -231.551 79.8384 -48.8718 83.4325 -172.176 37.148 88.9608 -21.2562 18.98 -4.00119 48.2322 -6.23813 8.53177 51.6323 23.2649 -6.11847 179.448 1.90997 93.9794 -49.8627 5.86338 -3.78423 37.6951 2.56766 3.06615 34.0095 0.0359494 17.9712 1.47344 6.88899 -89.7727 13.1002 3.03427 0.0824694 1.43285 3.03494 -0.0512768 -21.1286 2.86907 0.991337 -1.11599 2.86907 0.991333 87.6805 -43.3822 -106.305 38.1016 -24.7143 16.3268 -29.9008 10.4384 -95.0568 -20.214 -1.26324 3.11143 -92.3454 -37.9147 71.7547 -49.5242 8.52606 41.9761 11.3753 -4.91846 -91.109 29.5923 2.13442 3.38839 16.5492 -2.70629 1.98967 0.76224 -3.09033 1.50462 
-236.211 91.4921 -221.704 86.8907 -48.8686 86.4255 -170.59 28.2852 85.3 -31.1559 17.1658 -4.64814 56.4499 3.37355 17.1621 43.313 12.0856 -30.1083 177.448 10.3951 90.1454 -69.3881 15.1932 -4.47679 42.0291 -0.300576 0.380994 36.3114 0.533353 20.5906 1.07407 7.2797 -89.4929 12.3061 2.37497 0.743064 0.637082 2.40536 0.637761 -21.9094 2.04187 1.4227 -1.89678 2.04184 1.42269 85.8904 -46.1084 -108.315 38.2304 -22.9795 21.7545 -26.3518 -1.33851 -88.4812 -28.2623 -0.378542 -2.46093 -93.0944 -40.1693 71.2362 -46.3364 8.01188 37.8464 11.6711 -4.82915 -91.8977 31.1699 2.18592 3.17247 13.4486 -1.01266 1.55884 2.98227 -1.36326 0.320092 
-227.296 90.2023 -212.104 84.7671 -47.5052 82.1218 -171.258 23.3391 82.2491 -37.4267 21.3442 -4.53948 60.9735 13.6443 28.5067 49.1619 17.5601 -21.2171 175.767 26.659 88.3737 -78.683 17.7938 -4.21555 49.7909 -2.81855 -1.71475 43.4097 2.28806 20.7853 0.402215 7.27434 -89.0277 12.3146 1.2606 1.79571 0.643255 1.33842 1.7385 -21.8844 0.662736 2.09143 -1.87174 0.662746 2.09143 83.512 -50.3435 -110.544 35.6343 -19.319 23.7921 -22.256 0.596406 -77.9418 -26.5045 -0.823318 -0.604768 -95.4288 -41.7922 67.9921 -39.7891 8.62451 28.855 10.3311 -4.7204 -92.1232 30.9612 2.97545 5.85906 15.2361 0.653003 -0.540501 3.01575 0.835555 0.512461 
-218.347 90.713 -202.651 84.9058 -43.2903 82.8361 -173.63 15.9214 83.2175 -38.8457 18.0177 -1.99602 61.8909 12.0766 22.1144 63.9863 28.271 -22.2955 173.941 36.846 88.948 -72.251 18.2715 -2.05102 55.8899 -3.19978 -1.90766 42.6762 1.94922 18.1753 -0.471888 7.22547 -89.1362 12.424 -0.52699 1.78524 0.751879 -0.447887 1.80669 -21.7763 -1.0391 1.54443 -1.76369 -1.03909 1.54443 83.4775 -52.0687 -110.017 36.0597 -17.1401 28.9029 -17.9494 -1.34011 -73.6645 -26.2233 -1.37204 1.5338 -96.2133 -40.2439 66.1477 -36.6068 10.3101 22.1735 14.3925 -5.18839 -94.0375 31.6353 2.84948 5.22342 14.5683 2.41549 -1.74085 2.35474 2.97951 2.09709 
-208.569 92.297 -192.782 86.3844 -45.3621 84.9395 -173.209 9.26021 86.567 -40.2967 19.6134 -1.56719 50.9369 -2.42498 7.5956 61.7513 34.3203 -2.83234 177.444 37.4354 88.6691 -49.7302 19.1237 -0.388519 59.1332 -1.7978 -0.963433 44.5706 2.2198 16.3334 -0.559047 7.21355 -89.4353 12.4507 -0.842173 1.22402 0.779376 -0.787498 1.25989 -21.7549 -1.17111 0.914353 -1.74225 -1.17111 0.914343 84.7888 -50.9492 -108.44 37.5923 -16.5513 35.1657 -16.2994 -1.17263 -77.6567 -27.4918 -1.24441 0.610496 -95.2613 -39.585 67.4579 -36.2494 10.73 20.5628 14.3427 -7.07498 -100.502 32.6893 2.9686 5.2937 12.7875 4.22411 -1.59024 1.41541 4.80984 4.1228 
-199.127 92.6695 -182.646 88.3124 -43.5533 87.2587 -173.795 11.7872 88.8721 -52.013 17.8515 -0.421706 41.6205 -9.16551 4.56283 43.2789 15.2172 -5.46297 179.766 32.9864 87.6659 -25.7279 13.483 0.442083 51.9059 1.42903 1.42422 42.8133 1.81146 14.8616 -0.780665 7.33421 -89.7193 12.2104 -1.41869 0.717686 0.540062 -1.38573 0.779429 -22.0011 -1.5688 0.258047 -1.98848 -1.5688 0.258035 84.2248 -51.0191 -109.258 35.3024 -15.9681 36.2703 -18.1386 -0.800824 -79.258 -25.5155 -1.09196 0.341187 -95.2937 -39.8644 67.5091 -36.0456 10.7397 21.0366 14.8149 -6.82576 -101.069 30.1704 2.89064 5.77275 11.4953 4.22998 -1.65483 1.80894 4.91308 5.13153 
-190.057 91.9992 -172.935 91.9462 -42.8953 89.8002 -173.136 19.3841 88.5725 -63.7854 15.1327 -0.329378 48.8872 -1.93791 12.4607 45.8145 16.6487 -11.1751 178.893 30.3517 88.4621 -28.0207 10.0959 0.673219 51.2825 1.44455 1.39409 31.1773 -0.803129 18.3039 -0.526304 7.64453 -89.8436 11.5867 -0.973624 0.412296 -0.0839919 -0.954538 0.454752 -22.622 -1.05255 0.100586 -2.6094 -1.05253 0.100591 84.8772 -50.5927 -108.42 32.2707 -15.449 32.2136 -20.8845 1.57745 -79.0934 -27.9663 -0.49071 -2.46583 -97.0741 -40.3878 64.8078 -35.3495 10.9252 22.4442 16.9014 -4.68938 -89.594 32.4004 0.567514 -2.13693 9.20878 2.5518 -1.49733 3.68523 3.31168 5.29582 
-182.122 89.91 -163.562 94.4083 -43.6628 91.3595 -171.115 29.3498 87.2341 -63.7804 11.2367 -0.860638 56.503 4.68571 13.6186 53.1329 26.3537 -0.908325 178.351 30.0379 91.4017 -46.1141 13.984 -0.949703 64.7758 -2.95017 -1.62921 38.1326 0.985687 20.7953 -0.0914338 7.88352 -89.8126 11.1068 -0.0949693 0.382144 -0.564151 -0.0780771 0.385952 -23.099 -0.205421 0.335949 -3.08632 -0.205466 0.335926 86.1066 -47.7946 -107.431 31.533 -15.4374 25.0737 -22.4288 2.42882 -79.2014 -23.785 -1.11578 0.920997 -96.9192 -39.5046 64.7063 -35.6269 9.2561 25.0389 14.4681 -1.87049 -84.743 31.3002 3.0044 5.83262 8.95952 0.914628 -1.19212 4.09511 1.61742 4.861 
-173.8 88.5698 -154.409 93.0457 -44.8062 93.9165 -171.387 38.2744 89.4282 -49.1904 9.86746 -1.59712 58.5978 5.21438 14.6777 53.9152 28.3997 2.51679 177.049 25.9543 96.2124 -53.1098 16.5157 -0.465644 72.711 -5.76307 -2.85169 46.0432 2.68939 18.219 0.455073 7.86852 -90.243 11.1429 0.792836 -0.563063 -0.527969 0.767269 -0.597419 -23.0647 0.925399 -0.29875 -3.05208 0.92541 -0.298744 86.441 -45.1869 -107.737 29.3417 -13.3534 19.0167 -21.8171 -3.32358 -80.4847 -23.8274 -2.16753 6.21007 -96.1412 -40.6862 66.4351 -34.1021 6.19368 26.8776 14.11 -0.338705 -80.7171 31.4592 3.02933 5.85753 11.8356 -0.0573207 -0.184075 0.984139 0.296131 4.56927 
-164.47 88.66 -144.455 94.007 -47.4296 92.2243 -170.536 34.4735 88.0099 -18.1473 11.4187 -4.58396 47.7299 -6.29694 4.38921 47.5604 21.2564 2.2073 176.946 19.0335 93.7484 -57.6233 12.0392 -2.15841 70.8047 -5.63477 -2.89764 57.2579 5.09455 16.9439 0.918422 7.76511 -89.8665 11.3422 1.88975 0.0777703 -0.327382 1.89136 -0.00551881 -22.8726 1.77896 0.642301 -2.85995 1.77897 0.642301 85.7177 -45.3456 -108.842 28.0374 -9.84503 18.1518 -26.2101 -2.22116 -80.3247 -21.2574 -1.56073 4.2791 -94.0336 -39.8682 69.5839 -33.3846 1.60147 30.4208 13.195 -0.643203 -81.1175 31.9355 3.23944 6.38449 8.21133 -0.92095 -1.05748 1.6823 -0.375901 4.07119 
